<?xml version="1.0" standalone="no"?>
<!DOCTYPE svg PUBLIC "-//W3C//DTD SVG 20010904//EN"
 "http://www.w3.org/TR/2001/REC-SVG-20010904/DTD/svg10.dtd">
<svg version="1.0" xmlns="http://www.w3.org/2000/svg"
 width="648.000000pt" height="648.000000pt" viewBox="0 0 648.000000 648.000000"
 preserveAspectRatio="xMidYMid meet">

<g transform="translate(0.000000,648.000000) scale(0.100000,-0.100000)"
fill="#000000" stroke="none">
<path d="M3040 6474 c-368 -24 -729 -112 -1079 -261 -559 -239 -1047 -641
-1393 -1148 -298 -437 -481 -926 -544 -1460 -22 -190 -22 -543 0 -730 33 -272
107 -577 197 -810 103 -266 296 -603 476 -830 528 -665 1245 -1074 2118 -1206
197 -30 618 -33 815 -6 390 55 714 154 1055 322 365 181 649 394 942 710 468
504 754 1140 834 1860 17 143 16 508 0 655 -70 632 -302 1198 -699 1700 -96
122 -379 404 -502 501 -475 375 -1023 605 -1629 684 -111 14 -480 26 -591 19z
m579 -527 c17 -2 34 -7 38 -10 3 -4 14 -7 23 -7 10 0 29 -9 43 -20 14 -11 33
-20 44 -20 10 0 41 -12 68 -25 28 -14 66 -25 86 -25 28 0 41 -6 53 -25 9 -14
23 -25 32 -25 8 0 18 -8 21 -17 4 -10 20 -28 35 -41 30 -25 36 -50 16 -70 -8
-8 -8 -15 2 -27 7 -8 13 -35 14 -60 1 -25 5 -47 8 -51 4 -3 5 -11 2 -18 -2 -6
18 -36 46 -66 27 -30 55 -70 62 -87 7 -18 16 -33 21 -33 4 0 6 -26 4 -57 -4
-49 -3 -54 7 -34 11 19 13 9 14 -71 1 -51 7 -117 13 -147 14 -68 4 -129 -25
-162 -28 -33 -66 -47 -66 -26 0 16 -24 30 -34 20 -3 -4 -6 -15 -6 -25 0 -13 7
-18 27 -18 40 0 24 -7 -36 -14 -46 -6 -53 -5 -48 8 5 11 0 16 -12 16 -11 0
-21 -4 -23 -9 -4 -12 -68 -25 -68 -13 0 6 -51 9 -126 8 -69 -1 -120 0 -114 2
8 3 7 8 -1 18 -6 8 -8 14 -5 14 4 0 1 6 -6 14 -7 7 -18 11 -25 9 -6 -3 -18 5
-25 16 -7 12 -18 21 -25 21 -7 0 -13 5 -13 10 0 6 4 10 9 10 5 0 11 10 13 22
2 16 12 24 35 29 18 3 40 12 48 19 12 10 19 10 27 2 7 -7 21 -12 32 -12 17 0
18 -2 6 -10 -29 -19 1 -10 50 15 56 28 73 32 44 10 -18 -14 -16 -15 21 -9 40
7 40 7 22 -14 -18 -20 -8 -40 13 -27 6 3 26 1 45 -6 26 -10 32 -16 24 -25 -8
-9 -5 -16 9 -25 11 -7 18 -19 15 -26 -4 -9 5 -13 28 -13 18 0 30 3 26 6 -3 4
1 14 10 23 15 15 14 16 -12 21 l-28 5 31 35 c18 19 32 44 32 55 0 29 -36 66
-57 58 -13 -5 -15 -3 -8 13 17 40 18 74 2 74 -9 0 -22 7 -30 15 -11 10 -32 13
-73 11 -33 -2 -69 1 -81 5 -13 5 -25 4 -28 -1 -4 -6 -25 -10 -48 -10 -23 0
-51 -7 -61 -15 -12 -9 -42 -15 -76 -15 -34 0 -64 -6 -76 -15 -10 -8 -33 -15
-51 -15 -17 0 -35 -5 -38 -10 -4 -7 -12 -7 -25 0 -25 14 -100 13 -100 -1 0
-18 -60 -89 -76 -89 -8 0 -14 -4 -14 -8 0 -5 -7 -17 -16 -28 -14 -18 -15 -16
-10 22 7 48 -11 78 -46 79 -16 0 -22 5 -20 17 2 11 -9 20 -33 28 -24 8 -35 18
-35 31 0 10 -4 19 -10 19 -5 0 -10 14 -10 30 0 34 -22 41 -40 13 -9 -15 -10
-14 -4 7 4 14 11 28 17 31 14 9 1 39 -17 39 -8 0 -16 -10 -18 -22 -2 -12 -9
-24 -17 -26 -11 -4 -13 4 -8 42 6 44 6 46 -18 46 -14 0 -25 4 -25 10 0 5 7 7
15 4 8 -4 15 -1 15 5 0 6 -7 11 -15 11 -8 0 -15 5 -15 11 0 5 3 8 8 6 4 -3 16
-1 27 4 19 8 19 8 -2 15 -13 3 -23 10 -23 15 0 15 -28 10 -34 -7 -5 -14 -8
-14 -21 0 -8 8 -15 19 -15 25 0 6 -9 11 -20 11 -21 0 -25 16 -14 58 9 31 19
28 43 -14 21 -35 49 -42 43 -10 -3 17 14 23 20 6 2 -5 12 -7 23 -4 17 4 20 12
17 46 -3 31 0 43 12 50 14 8 15 13 5 24 -9 10 -9 18 -2 25 7 7 8 22 1 45 -5
19 -6 39 -3 44 4 6 -1 13 -9 16 -26 10 -18 23 16 26 22 2 36 10 44 25 6 13 18
31 27 41 10 10 17 23 17 29 0 6 9 9 20 6 12 -3 22 1 26 11 3 9 15 16 25 16 10
0 26 11 35 25 14 21 22 25 44 20 18 -4 31 -1 40 10 7 8 17 15 23 15 6 0 18 6
26 14 21 18 68 29 75 17 4 -5 26 -4 53 4 40 10 50 10 59 -1 6 -8 25 -15 43
-17z m-735 -598 c-3 -5 -10 -7 -15 -3 -5 3 -7 10 -3 15 3 5 10 7 15 3 5 -3 7
-10 3 -15z m56 -144 c0 -21 -17 -27 -24 -9 -10 25 -7 34 9 28 8 -4 15 -12 15
-19z m84 -35 c20 0 27 -6 31 -27 4 -16 10 -35 16 -43 5 -8 14 -25 19 -38 16
-38 70 -112 81 -112 6 0 22 -8 35 -19 22 -18 23 -19 5 -35 -20 -18 -51 -22
-51 -6 0 6 -7 10 -16 10 -8 0 -13 4 -9 9 9 15 -9 20 -25 8 -9 -7 -20 -23 -26
-37 l-11 -24 -36 37 c-20 20 -37 42 -37 50 0 7 -18 26 -40 43 -51 37 -74 78
-54 95 8 6 14 26 14 44 0 20 9 44 23 59 22 26 22 26 39 6 9 -11 28 -20 42 -20z
m1396 -190 c0 -11 -4 -20 -9 -20 -5 0 -11 9 -14 20 -3 13 0 20 9 20 8 0 14 -9
14 -20z m-35 -19 c6 -28 -10 -71 -27 -71 -4 0 -5 -8 -2 -17 4 -10 -3 -4 -15
12 -25 36 -27 62 -4 87 23 26 40 22 48 -11z m-878 -43 c20 -16 7 -25 -26 -20
-18 2 -28 9 -25 16 6 15 34 17 51 4z m53 2 c0 -5 -4 -10 -10 -10 -5 0 -10 5
-10 10 0 6 5 10 10 10 6 0 10 -4 10 -10z m-246 -15 c-4 -11 -2 -13 9 -9 17 6
21 1 31 -38 5 -21 3 -28 -9 -28 -11 0 -15 -12 -16 -47 -1 -31 -3 -38 -6 -20
-4 28 -35 67 -52 67 -18 0 -31 26 -19 38 9 9 9 12 0 12 -7 0 -12 7 -12 15 0 8
6 12 13 9 7 -2 24 0 38 5 13 5 25 10 26 10 1 1 0 -6 -3 -14z m1063 -137 c-2
-13 -4 -3 -4 22 0 25 2 35 4 23 2 -13 2 -33 0 -45z m-1009 -73 c15 -14 30 -25
35 -25 4 0 5 -4 2 -10 -3 -5 -1 -10 4 -10 48 0 -80 -89 -139 -97 -24 -3 -40
-1 -45 7 -13 20 -10 133 4 138 6 2 11 11 11 19 0 25 95 8 128 -22z m-563 11
c45 -16 64 -43 22 -32 -14 3 -37 2 -51 -4 -35 -13 -76 3 -76 30 0 16 6 20 33
20 17 0 50 -7 72 -14z m1282 8 c-3 -3 -12 -4 -19 -1 -8 3 -5 6 6 6 11 1 17 -2
13 -5z m0 -20 c-3 -3 -12 -4 -19 -1 -8 3 -5 6 6 6 11 1 17 -2 13 -5z m253 -29
c-6 -16 -6 -25 0 -25 6 0 10 6 10 14 0 8 5 18 11 22 16 10 33 -12 24 -33 -7
-16 -8 -16 -14 6 -6 21 -7 19 -17 -18 -6 -22 -8 -38 -3 -36 12 8 23 -99 23
-235 1 -136 -11 -240 -24 -205 -7 19 -7 19 -14 -2 -4 -13 -4 -32 -1 -43 4 -12
2 -20 -5 -20 -7 0 -9 -8 -5 -20 4 -14 1 -22 -10 -26 -14 -6 -14 -8 1 -26 10
-10 24 -16 31 -14 7 3 13 1 13 -4 0 -6 5 -10 10 -10 6 0 10 9 10 20 0 11 5 20
11 20 19 0 4 -201 -21 -295 -12 -44 -24 -98 -26 -120 -3 -22 -11 -45 -19 -51
-8 -6 -12 -14 -8 -18 4 -4 -3 -9 -15 -13 -12 -3 -22 -13 -22 -22 0 -25 -54
-63 -69 -48 -8 8 -11 6 -11 -10 0 -24 -23 -35 -58 -28 -17 3 -22 -1 -22 -16 0
-26 -13 -24 -25 4 -6 12 -20 23 -32 25 -26 4 -36 27 -23 53 9 16 7 19 -9 19
-25 0 -32 11 -21 30 5 9 5 19 -2 27 -6 7 -12 36 -14 65 -4 55 -14 69 -47 60
-14 -4 -28 4 -46 26 -31 37 -71 52 -71 27 0 -9 -8 -19 -19 -22 -19 -5 -41 -42
-41 -69 0 -17 -36 -11 -85 14 -18 10 -67 17 -122 20 -79 4 -94 2 -99 -12 -4
-10 -18 -16 -35 -16 -16 0 -29 -5 -29 -11 0 -17 -102 0 -122 19 -26 27 -26 73
2 110 29 39 44 40 66 7 12 -18 15 -37 10 -64 -5 -36 -4 -39 22 -44 22 -5 32 0
53 26 25 28 26 33 12 53 -27 42 22 153 61 138 37 -14 146 50 146 86 0 11 -92
23 -195 26 -126 4 -135 6 -135 25 0 9 -9 19 -20 22 -20 5 -24 23 -20 96 1 18
-3 36 -8 40 -5 3 -13 40 -17 81 -3 41 -9 83 -11 92 -8 26 27 67 56 68 18 0 51
-26 125 -100 55 -55 118 -109 140 -119 70 -34 125 -105 125 -164 0 -13 8 -30
18 -39 9 -9 30 -31 46 -50 17 -18 44 -41 60 -52 17 -10 37 -28 45 -39 7 -10
26 -31 42 -45 16 -13 26 -28 24 -32 -2 -4 2 -16 10 -26 10 -14 26 -19 59 -19
25 0 46 3 46 8 0 5 7 4 15 -3 11 -9 12 -16 4 -26 -12 -15 21 -54 46 -54 8 0
15 -7 15 -15 0 -22 28 -18 40 5 6 12 8 29 5 39 -4 12 0 21 11 25 9 4 14 9 11
13 -4 3 -13 0 -22 -7 -12 -10 -16 -9 -20 4 -3 9 -7 23 -10 32 -3 11 -12 14
-25 11 -11 -3 -23 -1 -26 4 -3 5 1 9 8 9 7 0 0 9 -17 20 -16 11 -33 31 -37 45
-7 26 -6 26 18 10 13 -8 24 -11 24 -6 0 6 -16 18 -35 27 -19 9 -35 23 -35 30
0 8 -5 14 -11 14 -5 0 -7 5 -4 10 3 6 1 10 -6 10 -8 0 -9 4 0 13 8 10 0 22
-34 52 -25 21 -45 44 -45 51 0 14 -81 84 -98 84 -12 0 -32 31 -32 49 0 13 51
26 155 41 59 9 87 18 105 35 14 12 59 38 101 58 42 19 79 41 82 50 3 9 12 56
18 104 10 71 17 92 37 110 28 26 52 68 52 90 0 8 4 12 10 8 6 -4 6 -15 0 -30z
m-149 -35 c12 0 11 -156 -2 -202 -9 -34 -17 -41 -92 -77 -115 -56 -279 -92
-427 -94 -76 -1 -122 3 -137 11 -24 14 -99 120 -90 128 3 3 13 -8 22 -25 13
-27 20 -30 43 -25 21 4 24 3 12 -5 -19 -14 -5 -14 21 -1 26 14 24 38 -3 42
-13 2 -23 8 -23 13 0 17 -16 36 -25 30 -4 -3 -10 5 -13 16 -3 11 -15 23 -26
26 -11 3 -23 14 -26 24 -4 11 -11 17 -16 14 -5 -4 -9 7 -9 24 0 20 8 36 26 50
35 28 45 26 69 -12 27 -43 64 -58 141 -59 64 0 95 -14 55 -25 -24 -6 -29 -33
-6 -33 8 0 15 -5 15 -11 0 -13 41 -2 55 16 6 7 25 16 44 20 18 4 42 16 53 27
15 15 30 19 68 16 34 -2 46 0 43 9 -3 9 7 12 34 10 21 -1 37 -7 36 -14 -3 -15
28 -22 52 -11 18 7 17 8 -3 4 -15 -3 -22 0 -19 7 2 7 16 13 30 15 25 3 34 20
28 55 0 4 4 7 10 7 16 0 38 31 40 55 2 18 2 17 6 -2 2 -13 9 -23 14 -23z
m-1436 10 c8 -13 -5 -13 -25 0 -13 8 -13 10 2 10 9 0 20 -4 23 -10z m1190 -30
c3 -5 -5 -22 -18 -36 -21 -23 -30 -26 -60 -20 -42 8 -53 35 -22 53 24 15 91
17 100 3z m-1746 -212 c-1 -42 -3 -48 -9 -28 -12 36 -12 80 0 80 6 0 10 -24 9
-52z m110 -30 l2 -83 -21 30 c-11 17 -20 45 -20 63 0 31 18 72 31 72 3 0 7
-37 8 -82z m-152 40 c-3 -8 -6 -5 -6 6 -1 11 2 17 5 13 3 -3 4 -12 1 -19z
m2310 -222 c4 -35 1 -45 -22 -69 -16 -15 -31 -25 -34 -22 -3 4 0 10 7 14 9 5
11 19 7 42 -4 19 -3 54 0 78 6 42 7 43 22 21 9 -12 18 -41 20 -64z m-2070 -36
c18 -14 21 -20 10 -20 -9 0 -23 7 -31 16 -31 30 -16 33 21 4z m488 -5 c-22 -8
-53 -13 -70 -13 -21 0 -13 4 25 13 72 16 95 16 45 0z m1532 -197 c-2 -24 -4
-7 -4 37 0 44 2 63 4 43 2 -21 2 -57 0 -80z m-387 -147 c14 -26 13 -28 -10
-34 -50 -13 -81 20 -37 41 31 15 35 14 47 -7z m-232 -297 c18 -8 32 -19 32
-24 0 -4 20 -18 45 -30 24 -12 47 -30 50 -41 4 -10 13 -19 21 -19 8 0 14 -4
14 -10 0 -5 -8 -10 -18 -10 -10 0 -23 -5 -30 -12 -15 -15 -16 -54 -2 -63 16
-10 11 -22 -12 -28 -18 -5 -19 -8 -8 -21 8 -10 9 -16 2 -16 -6 0 -9 -7 -5 -16
3 -8 12 -13 19 -10 7 3 16 -4 20 -16 4 -15 0 -26 -16 -38 -15 -11 -21 -23 -17
-33 3 -9 2 -19 -3 -22 -6 -4 -10 0 -10 7 0 10 -3 9 -9 -2 -6 -8 -7 -18 -5 -22
3 -4 -2 -8 -11 -8 -8 0 -29 -16 -46 -35 -22 -25 -39 -35 -60 -35 -16 0 -29 -4
-29 -10 0 -5 -8 -10 -17 -10 -17 1 -17 1 0 14 9 7 17 16 17 19 0 7 -51 0 -93
-13 -22 -7 -32 -5 -48 11 -22 22 -65 18 -86 -9 -10 -12 -13 -12 -13 -3 0 14
-28 40 -42 41 -5 0 -8 -12 -8 -27 l-1 -28 -20 24 c-18 22 -23 23 -41 12 -17
-11 -22 -10 -29 1 -5 7 -9 20 -9 28 0 8 -3 26 -7 39 -5 20 -3 22 16 16 17 -5
21 -2 21 15 0 12 -4 18 -10 15 -5 -3 -10 -2 -10 4 0 6 16 9 36 7 19 -1 37 1
40 6 3 4 14 8 25 8 10 0 19 5 19 12 0 6 3 9 6 5 3 -3 16 3 28 15 11 11 45 32
74 45 29 14 56 31 59 39 3 8 13 14 23 14 20 0 25 51 9 82 -8 15 -6 18 15 18
21 0 27 8 41 53 10 28 24 58 33 65 19 15 13 15 50 -4z m-225 -64 c-18 -31 -37
-37 -63 -20 -20 12 -2 30 42 40 18 4 34 8 36 9 2 1 -5 -12 -15 -29z m587 -40
c0 -5 -4 -10 -10 -10 -5 0 -10 5 -10 10 0 6 5 10 10 10 6 0 10 -4 10 -10z m96
-248 c58 -134 25 -454 -82 -802 -19 -63 -39 -129 -45 -146 -5 -17 -9 -45 -9
-62 0 -17 -4 -53 -9 -79 -5 -26 -15 -77 -21 -113 -13 -72 -50 -204 -55 -198
-1 1 -6 75 -10 163 -8 177 -38 322 -77 375 -26 35 -36 36 -86 11 -20 -10 -102
-42 -180 -70 -139 -49 -244 -101 -289 -143 l-21 -20 -21 21 c-20 20 -58 30
-48 14 18 -32 -56 -74 -128 -72 l-30 1 35 10 c44 12 43 10 28 43 -12 27 -12
28 -90 21 -43 -4 -90 -9 -105 -12 -22 -4 -43 4 -94 38 -104 68 -225 134 -241
130 -4 -1 -5 5 -1 14 7 19 47 36 68 28 8 -4 15 -1 15 4 0 6 10 12 23 14 15 2
21 9 20 23 -2 19 42 51 49 36 2 -3 39 -33 82 -66 44 -33 104 -79 135 -103 95
-73 114 -80 223 -78 65 1 102 7 115 16 10 8 34 28 54 45 20 16 56 46 79 65 24
19 55 46 70 60 15 14 47 41 71 62 24 20 55 46 69 57 74 62 211 193 250 239 25
29 50 58 56 65 22 25 46 68 41 73 -2 3 -15 -8 -26 -25 -37 -52 -85 -95 -103
-93 -9 2 -19 -2 -23 -8 -3 -6 -10 -8 -15 -5 -6 3 -4 14 3 26 10 16 9 21 -3 29
-13 8 -11 12 10 27 14 10 34 18 45 18 14 0 21 8 23 28 2 15 9 27 18 27 8 0 14
7 14 15 0 8 7 15 15 15 9 0 18 7 22 16 8 22 50 63 57 56 3 -3 6 4 6 16 0 26
15 29 30 5 10 -16 11 -15 7 5 -3 14 0 22 8 22 17 0 23 27 31 127 4 45 11 80
16 77 4 -3 15 -22 24 -42z m-936 -86 c0 -8 -6 -16 -14 -19 -10 -4 -14 0 -13
14 1 21 27 27 27 5z m580 -345 c0 -5 -7 -11 -15 -15 -15 -5 -20 5 -8 17 9 10
23 9 23 -2z m-1 -55 c9 -11 8 -15 -5 -20 -11 -4 -15 -2 -11 8 3 8 1 17 -6 20
-8 3 -8 5 -1 5 6 1 17 -5 23 -13z m31 -26 c0 -5 -5 -10 -11 -10 -5 0 -7 5 -4
10 3 6 8 10 11 10 2 0 4 -4 4 -10z m-370 -270 c0 -5 -5 -10 -11 -10 -5 0 -7 5
-4 10 3 6 8 10 11 10 2 0 4 -4 4 -10z m-25 -20 c8 -13 -5 -13 -25 0 -13 8 -13
10 2 10 9 0 20 -4 23 -10z m-50 -9 c-6 -4 -23 -12 -39 -15 -26 -6 -28 -5 -17
8 8 9 25 16 39 16 15 0 22 -4 17 -9z m-318 -756 c26 -9 56 -20 65 -25 10 -6
24 -10 31 -10 7 0 39 -32 70 -70 53 -64 117 -117 201 -162 76 -42 261 -73 271
-45 3 7 33 27 65 42 33 16 60 32 60 37 0 4 4 8 9 8 11 0 7 -34 -16 -155 -8
-44 -19 -105 -24 -135 -6 -30 -14 -59 -18 -65 -10 -12 -21 -55 -27 -105 -7
-55 -140 -310 -237 -455 -33 -49 -63 -92 -66 -95 -4 -3 -11 -16 -18 -30 -8
-19 -172 -244 -210 -289 -13 -16 -266 275 -321 368 -14 25 -31 51 -38 56 -23
21 -184 289 -184 308 0 3 -20 37 -44 74 -24 37 -47 79 -51 93 -4 14 -15 34
-25 45 -31 35 -143 272 -137 289 9 23 36 20 46 -6 8 -21 9 -20 16 13 5 28 14
40 42 53 27 13 38 14 49 5 11 -9 14 -8 14 5 0 10 23 27 59 45 33 16 73 38 89
50 17 11 32 21 35 21 2 0 22 16 43 36 39 37 39 37 44 13 5 -21 7 -22 13 -6 4
10 7 27 7 37 0 27 69 66 122 69 10 1 39 -6 65 -14z"/>
<path d="M3160 5476 c0 -10 8 -16 22 -16 12 0 19 1 17 3 -2 1 -12 9 -21 16
-15 12 -18 11 -18 -3z"/>
<path d="M3000 5430 c0 -5 4 -10 9 -10 6 0 13 5 16 10 3 6 -1 10 -9 10 -9 0
-16 -4 -16 -10z"/>
<path d="M3285 5340 c3 -5 11 -10 16 -10 6 0 7 5 4 10 -3 6 -11 10 -16 10 -6
0 -7 -4 -4 -10z"/>
<path d="M3153 5175 c4 -9 7 -20 7 -25 0 -4 9 -10 20 -13 27 -7 25 5 -7 32
-20 18 -25 20 -20 6z"/>
<path d="M3220 5110 c0 -5 5 -10 10 -10 6 0 10 5 10 10 0 6 -4 10 -10 10 -5 0
-10 -4 -10 -10z"/>
<path d="M2920 5029 c0 -5 5 -7 10 -4 6 3 10 8 10 11 0 2 -4 4 -10 4 -5 0 -10
-5 -10 -11z"/>
<path d="M3280 4850 c0 -5 9 -10 20 -10 11 0 20 5 20 10 0 6 -9 10 -20 10 -11
0 -20 -4 -20 -10z"/>
<path d="M4362 4410 c0 -14 2 -19 5 -12 2 6 2 18 0 25 -3 6 -5 1 -5 -13z"/>
<path d="M4360 4302 c0 -12 -4 -22 -8 -22 -9 0 -9 -47 0 -55 3 -3 9 15 13 40
3 26 4 49 1 53 -3 3 -6 -4 -6 -16z"/>
<path d="M4300 3980 c-12 -8 -11 -10 7 -10 12 0 25 5 28 10 8 13 -15 13 -35 0z"/>
<path d="M4310 3941 c0 -5 5 -22 10 -37 8 -20 8 -29 -1 -35 -8 -4 -9 -19 -5
-43 12 -63 26 -39 26 44 0 64 -3 80 -15 80 -8 0 -15 -4 -15 -9z"/>
<path d="M4363 3830 c0 -25 2 -35 4 -22 2 12 2 32 0 45 -2 12 -4 2 -4 -23z"/>
<path d="M4050 4470 c0 -5 5 -10 11 -10 5 0 7 5 4 10 -3 6 -8 10 -11 10 -2 0
-4 -4 -4 -10z"/>
<path d="M3579 4373 c0 -5 -2 -16 -4 -27 -2 -11 3 -20 15 -23 10 -3 20 -15 22
-27 3 -19 10 -21 71 -24 42 -2 67 1 67 8 0 5 -9 10 -19 10 -10 0 -21 7 -25 15
-3 8 -11 15 -18 15 -16 0 -48 35 -48 52 0 6 -3 8 -7 4 -5 -4 -8 -13 -8 -19 0
-7 -8 -13 -17 -15 -12 -2 -15 2 -11 17 3 12 1 21 -6 21 -6 0 -11 -3 -12 -7z"/>
<path d="M3975 4320 c-3 -6 1 -7 9 -4 18 7 21 14 7 14 -6 0 -13 -4 -16 -10z"/>
<path d="M3988 3783 c6 -2 18 -2 25 0 6 3 1 5 -13 5 -14 0 -19 -2 -12 -5z"/>
<path d="M3970 2720 c0 -5 5 -10 10 -10 6 0 10 5 10 10 0 6 -4 10 -10 10 -5 0
-10 -4 -10 -10z"/>
<path d="M2962 1445 c0 -16 2 -22 5 -12 2 9 2 23 0 30 -3 6 -5 -1 -5 -18z"/>
<path d="M2961 1344 c0 -11 3 -14 6 -6 3 7 2 16 -1 19 -3 4 -6 -2 -5 -13z"/>
<path d="M3184 1151 c-41 -18 -70 -87 -52 -127 33 -72 168 -27 168 56 0 55
-63 93 -116 71z"/>
</g>
</svg>
